<?xml version="1.0" encoding="UTF-8"?>
<svg xmlns="http://www.w3.org/2000/svg" width="11pt" height="12pt" viewBox="0 0 11 12" version="1.1">
<g>
<path style=" fill-rule:nonzero;fill:rgb(0%,0%,0%);fill-opacity:1;" d="M 3.632812 6.75 L 2.652344 6.75 C 2.488281 6.75 2.355469 6.625 2.355469 6.46875 L 2.355469 5.53125 C 2.355469 5.375 2.488281 5.25 2.652344 5.25 L 3.632812 5.25 C 3.796875 5.25 3.929688 5.375 3.929688 5.53125 L 3.929688 6.46875 C 3.929688 6.625 3.796875 6.75 3.632812 6.75 Z M 6.285156 6.46875 L 6.285156 5.53125 C 6.285156 5.375 6.152344 5.25 5.992188 5.25 L 5.007812 5.25 C 4.847656 5.25 4.714844 5.375 4.714844 5.53125 L 4.714844 6.46875 C 4.714844 6.625 4.847656 6.75 5.007812 6.75 L 5.992188 6.75 C 6.152344 6.75 6.285156 6.625 6.285156 6.46875 Z M 8.644531 6.46875 L 8.644531 5.53125 C 8.644531 5.375 8.511719 5.25 8.347656 5.25 L 7.367188 5.25 C 7.203125 5.25 7.070312 5.375 7.070312 5.53125 L 7.070312 6.46875 C 7.070312 6.625 7.203125 6.75 7.367188 6.75 L 8.347656 6.75 C 8.511719 6.75 8.644531 6.625 8.644531 6.46875 Z M 6.285156 8.71875 L 6.285156 7.78125 C 6.285156 7.625 6.152344 7.5 5.992188 7.5 L 5.007812 7.5 C 4.847656 7.5 4.714844 7.625 4.714844 7.78125 L 4.714844 8.71875 C 4.714844 8.875 4.847656 9 5.007812 9 L 5.992188 9 C 6.152344 9 6.285156 8.875 6.285156 8.71875 Z M 3.929688 8.71875 L 3.929688 7.78125 C 3.929688 7.625 3.796875 7.5 3.632812 7.5 L 2.652344 7.5 C 2.488281 7.5 2.355469 7.625 2.355469 7.78125 L 2.355469 8.71875 C 2.355469 8.875 2.488281 9 2.652344 9 L 3.632812 9 C 3.796875 9 3.929688 8.875 3.929688 8.71875 Z M 8.644531 8.71875 L 8.644531 7.78125 C 8.644531 7.625 8.511719 7.5 8.347656 7.5 L 7.367188 7.5 C 7.203125 7.5 7.070312 7.625 7.070312 7.78125 L 7.070312 8.71875 C 7.070312 8.875 7.203125 9 7.367188 9 L 8.347656 9 C 8.511719 9 8.644531 8.875 8.644531 8.71875 Z M 11 2.625 L 11 10.875 C 11 11.496094 10.472656 12 9.820312 12 L 1.179688 12 C 0.527344 12 0 11.496094 0 10.875 L 0 2.625 C 0 2.003906 0.527344 1.5 1.179688 1.5 L 2.355469 1.5 L 2.355469 0.28125 C 2.355469 0.125 2.488281 0 2.652344 0 L 3.632812 0 C 3.796875 0 3.929688 0.125 3.929688 0.28125 L 3.929688 1.5 L 7.070312 1.5 L 7.070312 0.28125 C 7.070312 0.125 7.203125 0 7.367188 0 L 8.347656 0 C 8.511719 0 8.644531 0.125 8.644531 0.28125 L 8.644531 1.5 L 9.820312 1.5 C 10.472656 1.5 11 2.003906 11 2.625 Z M 9.820312 10.734375 L 9.820312 3.75 L 1.179688 3.75 L 1.179688 10.734375 C 1.179688 10.8125 1.246094 10.875 1.324219 10.875 L 9.675781 10.875 C 9.753906 10.875 9.820312 10.8125 9.820312 10.734375 Z M 9.820312 10.734375 "/>
</g>
</svg>
