<svg xmlns="http://www.w3.org/2000/svg" width="11pt" height="12pt" viewBox="0 0 11 12" version="1.1">
<g id="surface1">
<path d="M 7.699219 7.125 C 6.996094 7.125 6.65625 7.5 5.5 7.5 C 4.34375 7.5 4.007812 7.125 3.300781 7.125 C 1.476562 7.125 0 8.535156 0 10.273438 L 0 10.875 C 0 11.496094 0.527344 12 1.179688 12 L 9.820312 12 C 10.472656 12 11 11.496094 11 10.875 L 11 10.273438 C 11 8.535156 9.523438 7.125 7.699219 7.125 Z M 9.820312 10.875 L 1.179688 10.875 L 1.179688 10.273438 C 1.179688 9.160156 2.132812 8.25 3.300781 8.25 C 3.660156 8.25 4.242188 8.625 5.5 8.625 C 6.769531 8.625 7.339844 8.25 7.699219 8.25 C 8.867188 8.25 9.820312 9.160156 9.820312 10.273438 Z M 5.5 6.75 C 7.453125 6.75 9.035156 5.238281 9.035156 3.375 C 9.035156 1.511719 7.453125 0 5.5 0 C 3.546875 0 1.964844 1.511719 1.964844 3.375 C 1.964844 5.238281 3.546875 6.75 5.5 6.75 Z M 5.5 1.125 C 6.800781 1.125 7.855469 2.136719 7.855469 3.375 C 7.855469 4.613281 6.800781 5.625 5.5 5.625 C 4.199219 5.625 3.144531 4.613281 3.144531 3.375 C 3.144531 2.136719 4.199219 1.125 5.5 1.125 Z M 5.5 1.125 "/>
</g>
</svg>
